<?xml version="1.0" standalone="no"?>
<!DOCTYPE svg PUBLIC "-//W3C//DTD SVG 20010904//EN"
 "http://www.w3.org/TR/2001/REC-SVG-20010904/DTD/svg10.dtd">
<svg version="1.0" xmlns="http://www.w3.org/2000/svg"
 width="512.000000pt" height="512.000000pt" viewBox="0 0 512.000000 512.000000"
 preserveAspectRatio="xMidYMid meet">

<g transform="translate(0.000000,512.000000) scale(0.100000,-0.100000)"
fill="#000000" stroke="none">
<path d="M950 4674 c-355 -77 -605 -386 -604 -749 1 -208 69 -374 215 -529
l78 -83 -54 -12 c-133 -30 -253 -97 -356 -200 -149 -149 -224 -329 -224 -541
0 -154 40 -290 120 -416 48 -75 153 -180 227 -227 32 -20 58 -39 58 -41 0 -2
-24 -19 -53 -36 -154 -95 -276 -259 -329 -446 -17 -62 -22 -105 -22 -199 -1
-144 15 -212 79 -340 106 -216 282 -353 525 -410 57 -13 335 -15 2288 -15
l2222 0 0 210 0 210 -85 0 -85 0 0 345 0 345 85 0 85 0 0 210 0 210 -170 0
-170 0 0 130 0 130 -85 0 -85 0 0 340 0 340 85 0 85 0 0 130 0 130 170 0 170
0 0 210 0 209 -127 3 -128 3 0 340 0 340 128 3 127 3 0 209 0 210 -2052 -1
c-1722 0 -2063 -3 -2118 -15z m3740 -749 l0 -345 -1822 2 -1823 3 -57 23
c-120 48 -204 163 -215 293 -16 172 109 329 286 359 25 4 853 8 1839 9 l1792
1 0 -345z m-82 -812 l3 -43 -1956 0 c-2155 0 -2015 4 -2130 -61 -169 -95 -265
-258 -265 -449 0 -222 128 -401 350 -491 30 -12 342 -15 2015 -19 l1980 -5 0
-40 0 -40 -1960 0 c-1841 0 -1964 1 -2024 18 -407 112 -577 581 -335 924 54
76 119 133 204 177 82 43 124 56 208 66 37 4 931 7 1987 6 l1920 -1 3 -42z
m-168 -553 l0 -340 -1877 2 -1878 3 -56 26 c-279 131 -258 530 34 630 49 17
149 18 1915 19 l1862 0 0 -340z m335 -1365 l0 -340 -2035 0 -2035 0 -59 24
c-76 30 -144 94 -182 168 -26 51 -29 68 -29 148 0 78 4 97 28 146 48 98 145
170 256 189 25 4 948 7 2051 6 l2005 -1 0 -340z"/>
<path d="M1020 3925 l0 -85 1625 0 1625 0 0 85 0 85 -1625 0 -1625 0 0 -85z"/>
<path d="M4350 3925 l0 -85 85 0 85 0 0 85 0 85 -85 0 -85 0 0 -85z"/>
<path d="M684 2637 c-3 -8 -4 -47 -2 -88 l3 -74 1620 0 1620 0 0 85 0 85
-1618 3 c-1348 2 -1618 0 -1623 -11z"/>
<path d="M4100 2560 l0 -91 83 3 82 3 0 85 0 85 -82 3 -83 3 0 -91z"/>
<path d="M680 1195 l0 -85 1795 0 1795 0 0 85 0 85 -1795 0 -1795 0 0 -85z"/>
<path d="M4440 1195 l0 -85 85 0 85 0 0 85 0 85 -85 0 -85 0 0 -85z"/>
</g>
</svg>
